<svg width="64" height="64" viewBox="0 0 24 24" fill="none" xmlns="http://www.w3.org/2000/svg">
  <path d="M12 2C6.48 2 2 6.59 2 12.26C2 16.8 4.87 20.65 8.84 22C9.34 22.09 9.52 21.78 9.52 21.51C9.52 21.27 9.51 20.47 9.5 19.62C6.73 20.24 6.14 18.42 6.14 18.42C5.68 17.2 5.03 16.88 5.03 16.88C4.12 16.24 5.1 16.25 5.1 16.25C6.1 16.32 6.63 17.32 6.63 17.32C7.52 18.9 8.97 18.45 9.54 18.19C9.63 17.53 9.89 17.08 10.18 16.82C7.97 16.56 5.65 15.67 5.65 11.72C5.65 10.59 6.04 9.67 6.68 8.95C6.58 8.69 6.24 7.64 6.78 6.22C6.78 6.22 7.62 5.94 9.5 7.26C10.3 7.03 11.15 6.92 12 6.92C12.85 6.92 13.7 7.03 14.5 7.26C16.38 5.94 17.22 6.22 17.22 6.22C17.76 7.64 17.42 8.69 17.32 8.95C17.96 9.67 18.35 10.59 18.35 11.72C18.35 15.68 16.02 16.56 13.8 16.82C14.17 17.15 14.5 17.8 14.5 18.79C14.5 20.21 14.49 21.18 14.49 21.51C14.49 21.78 14.67 22.09 15.18 22C19.15 20.65 22 16.8 22 12.26C22 6.59 17.52 2 12 2Z" fill="#F8FAFC"/>
</svg>