<svg width="64" height="64" viewBox="0 0 24 24" fill="none" xmlns="http://www.w3.org/2000/svg">
  <path d="M5.09 4.25C4.04 4.25 3.12 4.93 2.82 5.93L1.28 10.95C1.1 11.56 1 12.19 1 12.82V16.5C1 17.88 2.12 19 3.5 19H5.5C6.33 19 7 18.33 7 17.5C7 18.33 7.67 19 8.5 19H15.5C16.33 19 17 18.33 17 17.5C17 18.33 17.67 19 18.5 19H20.5C21.88 19 23 17.88 23 16.5V12.82C23 12.19 22.9 11.56 22.72 10.95L21.18 5.93C20.88 4.93 19.96 4.25 18.91 4.25C18.06 4.25 17.29 4.7 16.85 5.42L15.62 7.42C15.32 7.9 14.79 8.19 14.23 8.19H9.77C9.21 8.19 8.68 7.9 8.38 7.42L7.15 5.42C6.71 4.7 5.94 4.25 5.09 4.25Z" fill="#F8FAFC"/>
</svg>