<svg width="64" height="64" viewBox="0 0 24 24" fill="none" xmlns="http://www.w3.org/2000/svg">
  <path d="M6.94 8.5H3.56V20H6.94V8.5Z" fill="#F8FAFC"/>
  <path d="M5.25 7C6.36 7 7.25 6.08 7.25 4.94C7.25 3.8 6.36 2.88 5.25 2.88C4.14 2.88 3.25 3.8 3.25 4.94C3.25 6.08 4.14 7 5.25 7Z" fill="#F8FAFC"/>
  <path d="M20.75 13.06C20.75 9.94 19.08 8.23 16.85 8.23C15.05 8.23 14.24 9.24 13.79 9.94V8.5H10.56C10.6 9.46 10.56 20 10.56 20H13.79V13.58C13.79 13.24 13.82 12.91 13.91 12.66C14.17 11.98 14.77 11.28 15.77 11.28C17.08 11.28 17.61 12.31 17.61 13.82V20H20.84L20.75 13.06Z" fill="#F8FAFC"/>
</svg>