<svg width="64" height="64" viewBox="0 0 24 24" fill="none" xmlns="http://www.w3.org/2000/svg">
  <path d="M21.58 7.19C21.36 6.37 20.72 5.73 19.9 5.51C18.39 5.1 12 5.1 12 5.1C12 5.1 5.61 5.1 4.1 5.51C3.28 5.73 2.64 6.37 2.42 7.19C2 8.71 2 11.88 2 11.88C2 11.88 2 15.05 2.42 16.57C2.64 17.39 3.28 18.03 4.1 18.25C5.61 18.66 12 18.66 12 18.66C12 18.66 18.39 18.66 19.9 18.25C20.72 18.03 21.36 17.39 21.58 16.57C22 15.05 22 11.88 22 11.88C22 11.88 22 8.71 21.58 7.19ZM9.96 14.61V9.15L14.7 11.88L9.96 14.61Z" fill="#F8FAFC"/>
</svg>